<?xml version="1.0" encoding="UTF-8" standalone="no"?>
<svg
   xmlns:dc="http://purl.org/dc/elements/1.1/"
   xmlns:cc="http://creativecommons.org/ns#"
   xmlns:rdf="http://www.w3.org/1999/02/22-rdf-syntax-ns#"
   xmlns:svg="http://www.w3.org/2000/svg"
   xmlns="http://www.w3.org/2000/svg"
   xmlns:sodipodi="http://sodipodi.sourceforge.net/DTD/sodipodi-0.dtd"
   xmlns:inkscape="http://www.inkscape.org/namespaces/inkscape"
   data-name="Ebene 1"
   viewBox="0 0 800 800"
   id="svg3597"
   version="1.1"
   inkscape:version="0.91 r13725"
   sodipodi:docname="keyboard-unchanged.svg">
  <metadata
     id="metadata3619">
    <rdf:RDF>
      <cc:Work
         rdf:about="">
        <dc:format>image/svg+xml</dc:format>
        <dc:type
           rdf:resource="http://purl.org/dc/dcmitype/StillImage" />
        <dc:title></dc:title>
      </cc:Work>
    </rdf:RDF>
  </metadata>
  <sodipodi:namedview
     pagecolor="#ffffff"
     bordercolor="#666666"
     borderopacity="1"
     objecttolerance="10"
     gridtolerance="10"
     guidetolerance="10"
     inkscape:pageopacity="0"
     inkscape:pageshadow="2"
     inkscape:window-width="1916"
     inkscape:window-height="1041"
     id="namedview3617"
     showgrid="false"
     inkscape:zoom="0.59"
     inkscape:cx="-211.19428"
     inkscape:cy="462.10529"
     inkscape:window-x="0"
     inkscape:window-y="18"
     inkscape:window-maximized="0"
     inkscape:current-layer="svg3597" />
  <defs
     id="defs3599">
    <clipPath
       id="d">
      <circle
         cx="400"
         cy="400"
         r="400"
         fill="none"
         id="circle3602" />
    </clipPath>
    <linearGradient
       id="c"
       x1="454.35"
       x2="164"
       y1="345.65"
       y2="636"
       gradientUnits="userSpaceOnUse">
      <stop
         offset="0"
         id="stop3605" />
      <stop
         stop-opacity="0"
         offset="1"
         id="stop3607" />
    </linearGradient>
  </defs>
  <circle
     cx="400"
     cy="400"
     r="400"
     fill="#1c8adb"
     id="circle3609" />
  <g
     clip-path="url(#d)"
     id="g3611">
    <path
       d="m319.22 796.22c143.03-143 279.92-279.83 280.84-280.74a10.567 10.567 0 0 0 3.1046 -7.4951v-215.97a10.6 10.6 0 0 0 -10.6 -10.6h-385.12a10.575 10.575 0 0 0 -7.9817 3.6248l-195.71 195.7c35.913 157.13 133.32 268.11 315.48 315.48z"
       fill="url(#c)"
       opacity=".42"
       id="path3613" />
    <path
       d="m592.56 281.42h-385.12a10.6 10.6 0 0 0 -10.6 10.6v215.97a10.6 10.6 0 0 0 10.6 10.6h385.12a10.6 10.6 0 0 0 10.6 -10.6v-215.97a10.6 10.6 0 0 0 -10.6 -10.6zm-83.915 37.32h33.919v33.919h-33.919zm16.96 77.378h-33.92v-33.919h33.919zm16.96 9.54v33.919h-33.92v-33.92zm-268.17-9.54v-33.919h33.919v33.919zm7.42 9.54v33.919h-33.92v-33.92zm9.54 0h33.919v33.919h-33.92zm26.499-9.54v-33.919h33.919v33.919zm16.96 9.54h33.919v33.919h-33.921zm26.499-9.54v-33.919h33.917v33.919zm16.96 9.54h33.917v33.919h-33.92zm26.499-9.54v-33.919h33.917v33.919zm16.96 9.54h33.919v33.919h-33.922zm26.499-9.54v-33.919h33.919v33.919zm16.96 9.54h33.919v33.919h-33.922zm0-86.918h33.919v33.919h-33.922zm-43.459 0h33.919v33.919h-33.922zm-43.459 0h33.917v33.919h-33.92zm-43.459 0h33.919v33.919h-33.922zm-43.459 0h33.919v33.919h-33.922zm-43.459 0h33.916v33.919h-33.919zm-16.96 43.459h33.919v33.919h-33.922zm33.919 120.84h-33.922v-33.92h33.919zm257.57 0h-248.04v-33.92h248.03zm43.459 0h-33.922v-33.92h33.919zm3.18-86.918h-33.922v-33.92h33.919z"
       fill="#fff"
       id="path3615" />
  </g>
</svg>
