<?xml version="1.0" encoding="UTF-8" standalone="no"?>
<svg
   xmlns:dc="http://purl.org/dc/elements/1.1/"
   xmlns:cc="http://creativecommons.org/ns#"
   xmlns:rdf="http://www.w3.org/1999/02/22-rdf-syntax-ns#"
   xmlns:svg="http://www.w3.org/2000/svg"
   xmlns="http://www.w3.org/2000/svg"
   xmlns:sodipodi="http://sodipodi.sourceforge.net/DTD/sodipodi-0.dtd"
   xmlns:inkscape="http://www.inkscape.org/namespaces/inkscape"
   data-name="Ebene 1"
   viewBox="0 0 406.32001 237.17"
   id="svg3597"
   version="1.1"
   inkscape:version="0.91 r13725"
   sodipodi:docname="keyboard.svg"
   width="406.32001"
   height="237.17">
  <metadata
     id="metadata3619">
    <rdf:RDF>
      <cc:Work
         rdf:about="">
        <dc:format>image/svg+xml</dc:format>
        <dc:type
           rdf:resource="http://purl.org/dc/dcmitype/StillImage" />
        <dc:title />
      </cc:Work>
    </rdf:RDF>
  </metadata>
  <sodipodi:namedview
     pagecolor="#ffffff"
     bordercolor="#666666"
     borderopacity="1"
     objecttolerance="10"
     gridtolerance="10"
     guidetolerance="10"
     inkscape:pageopacity="0"
     inkscape:pageshadow="2"
     inkscape:window-width="1916"
     inkscape:window-height="1041"
     id="namedview3617"
     showgrid="false"
     inkscape:zoom="1"
     inkscape:cx="166.27925"
     inkscape:cy="185.40708"
     inkscape:window-x="0"
     inkscape:window-y="18"
     inkscape:window-maximized="0"
     inkscape:current-layer="svg3597"
     inkscape:snap-bbox="true"
     inkscape:bbox-paths="true"
     inkscape:bbox-nodes="true"
     inkscape:snap-bbox-edge-midpoints="true"
     inkscape:snap-bbox-midpoints="true"
     showguides="true"
     inkscape:guide-bbox="true"
     fit-margin-top="0"
     fit-margin-left="0"
     fit-margin-right="0"
     fit-margin-bottom="0">
    <sodipodi:guide
       position="1.7763569e-15,92.796611"
       orientation="1,0"
       id="guide3729" />
    <sodipodi:guide
       position="1.7763569e-15,1.1368684e-13"
       orientation="0,1"
       id="guide3731" />
  </sodipodi:namedview>
  <defs
     id="defs3599">
    <clipPath
       id="d">
      <circle
         cx="400"
         cy="400"
         r="400"
         id="circle3602"
         style="fill:none" />
    </clipPath>
    <linearGradient
       id="c"
       x1="454.35001"
       x2="164"
       y1="345.64999"
       y2="636"
       gradientUnits="userSpaceOnUse">
      <stop
         offset="0"
         id="stop3605" />
      <stop
         stop-opacity="0"
         offset="1"
         id="stop3607" />
    </linearGradient>
  </defs>
  <g
     clip-path="url(#d)"
     id="g3611"
     transform="translate(-201.9449,-281.33559)">
    <path
       d="m 597.6649,281.33559 -385.12,0 a 10.6,10.6 0 0 0 -10.6,10.6 l 0,215.97 a 10.6,10.6 0 0 0 10.6,10.6 l 385.12,0 a 10.6,10.6 0 0 0 10.6,-10.6 l 0,-215.97 a 10.6,10.6 0 0 0 -10.6,-10.6 z m -83.915,37.32 33.919,0 0,33.919 -33.919,0 z m 16.96,77.378 -33.92,0 0,-33.919 33.919,0 z m 16.96,9.54 0,33.919 -33.92,0 0,-33.92 z m -268.17,-9.54 0,-33.919 33.919,0 0,33.919 z m 7.42,9.54 0,33.919 -33.92,0 0,-33.92 z m 9.54,0 33.919,0 0,33.919 -33.92,0 z m 26.499,-9.54 0,-33.919 33.919,0 0,33.919 z m 16.96,9.54 33.919,0 0,33.919 -33.921,0 z m 26.499,-9.54 0,-33.919 33.917,0 0,33.919 z m 16.96,9.54 33.917,0 0,33.919 -33.92,0 z m 26.499,-9.54 0,-33.919 33.917,0 0,33.919 z m 16.96,9.54 33.919,0 0,33.919 -33.922,0 z m 26.499,-9.54 0,-33.919 33.919,0 0,33.919 z m 16.96,9.54 33.919,0 0,33.919 -33.922,0 z m 0,-86.918 33.919,0 0,33.919 -33.922,0 z m -43.459,0 33.919,0 0,33.919 -33.922,0 z m -43.459,0 33.917,0 0,33.919 -33.92,0 z m -43.459,0 33.919,0 0,33.919 -33.922,0 z m -43.459,0 33.919,0 0,33.919 -33.922,0 z m -43.459,0 33.916,0 0,33.919 -33.919,0 z m -16.96,43.459 33.919,0 0,33.919 -33.922,0 z m 33.919,120.84 -33.922,0 0,-33.92 33.919,0 z m 257.57,0 -248.04,0 0,-33.92 248.03,0 z m 43.459,0 -33.922,0 0,-33.92 33.919,0 z m 3.18,-86.918 -33.922,0 0,-33.92 33.919,0 z"
       id="path3615"
       inkscape:connector-curvature="0"
       style="fill:#b3b3b3" />
  </g>
</svg>
